<?xml version="1.0" encoding="utf-8"?>
<!-- Generator: Adobe Illustrator 24.1.2, SVG Export Plug-In . SVG Version: 6.00 Build 0)  -->
<svg version="1.1" id="Layer_1" xmlns="http://www.w3.org/2000/svg" xmlns:xlink="http://www.w3.org/1999/xlink" x="0px" y="0px"
	 viewBox="0 0 574 320" style="enable-background:new 0 0 574 320;" xml:space="preserve">
<style type="text/css">
	.st0{fill-rule:evenodd;clip-rule:evenodd;fill:#00B0F0;}
	.st1{clip-path:url(#SVGID_2_);fill-rule:evenodd;clip-rule:evenodd;fill:#C55A11;}
	.st2{clip-path:url(#SVGID_2_);fill:none;stroke:#FFFFFF;stroke-miterlimit:8;}
</style>
<path class="st0" d="M221.08,4.56c33.22,1.5,68.96,39.97,99.66,45.65s62.04-4.07,84.55-11.57c5.63-1.88,11.56-5.06,17.3-8.75
	l6.68-4.6L428,28l-2,6l-3,5c-4,6-9.63,11.76-14.51,15.08c-19.5,13.29-44.04,30.49-69.76,30.87c-25.72,0.38-51.11-32.26-84.55-28.61
	c-27.16,2.96-72.08,35.99-99.93,47.01l-3.54,1.23l-3.16-5.2c-9.23-17-15.28-35.99-17.33-56.16l-0.48-9.56l3.15-2.27
	C154.29,17.05,194.09,3.35,221.08,4.56L221.08,4.56z"/>
<g>
	<defs>
		<polygon id="SVGID_1_" points="130.91,192.49 435.11,192.49 435.11,-126.71 130.91,-126.71 130.91,192.49 		"/>
	</defs>
	<clipPath id="SVGID_2_">
		<use xlink:href="#SVGID_1_"  style="overflow:visible;"/>
	</clipPath>
	<path class="st1" d="M434.51,50.77l-0.34,6.64c-7.68,75.6-71.56,134.6-149.22,134.6c-51.77,0-97.42-26.22-124.38-66.1l-4.35-7.16
		l3.54-1.23c27.85-11.01,72.78-44.03,99.95-46.99c33.44-3.64,58.84,28.98,84.56,28.6c25.72-0.37,50.27-17.57,69.77-30.85
		c4.88-3.32,10.3-7.87,15.69-12.88L434.51,50.77L434.51,50.77L434.51,50.77z"/>
	<path class="st2" d="M434.51,50.77l-0.34,6.64c-7.68,75.6-71.56,134.6-149.22,134.6c-51.77,0-97.42-26.22-124.38-66.1l-4.35-7.16
		l3.54-1.23c27.85-11.01,72.78-44.03,99.95-46.99c33.44-3.64,58.84,28.98,84.56,28.6c25.72-0.37,50.27-17.57,69.77-30.85
		c4.88-3.32,10.3-7.87,15.69-12.88L434.51,50.77L434.51,50.77L434.51,50.77z"/>
</g>
<g>
	<g>
		<path d="M20.95,203.42h6.29v33.39h-6.29V203.42z M23.45,217.33h11.61c0.64,0,1.21-0.16,1.7-0.48c0.49-0.32,0.87-0.78,1.14-1.38
			c0.27-0.6,0.41-1.29,0.42-2.07c0-0.78-0.13-1.47-0.4-2.07s-0.65-1.06-1.14-1.38c-0.49-0.32-1.06-0.48-1.72-0.48H23.45v-6.06h12.12
			c1.84,0,3.45,0.41,4.84,1.24c1.39,0.83,2.47,1.99,3.24,3.5c0.76,1.51,1.15,3.26,1.15,5.24c0,1.99-0.38,3.74-1.15,5.24
			c-0.77,1.51-1.85,2.67-3.25,3.5c-1.4,0.83-3.01,1.24-4.83,1.24H23.45V217.33z M30.47,222.35l6.72-1.06l9,15.51h-7.62L30.47,222.35
			z"/>
		<path d="M72.58,203.44h8.28v33.37h-5.71V210.9l0.23,1.47L69,233.09h-5.55l-6.38-20.26l0.23-1.93v25.91h-5.71v-33.37h8.28
			l6.36,22.49L72.58,203.44z"/>
		<path d="M94.27,236.81h-6.52v-33.37h6.52V236.81z"/>
		<path d="M96.57,203.44h24.46v6.06H96.57V203.44z M105.65,206.18h6.29v30.64h-6.29V206.18z"/>
		<path d="M142.33,236.7c-1.44-0.31-2.78-0.76-4.03-1.38c-1.25-0.61-2.41-1.38-3.5-2.29l2.91-3.58c1.27,1.1,2.67,1.93,4.2,2.48
			c1.53,0.55,3.19,0.83,4.98,0.83c2.42,0,4.29-0.45,5.62-1.34c1.33-0.9,2-2.16,2-3.8v-0.02c0-1.16-0.3-2.08-0.91-2.77
			c-0.6-0.68-1.38-1.19-2.34-1.51c-0.96-0.33-2.19-0.63-3.71-0.91c-0.05-0.01-0.1-0.02-0.15-0.02s-0.1-0.01-0.15-0.02l-0.34-0.07
			c-2.23-0.38-4.05-0.81-5.45-1.3c-1.4-0.48-2.6-1.36-3.59-2.64c-0.99-1.28-1.49-3.09-1.49-5.45v-0.02c0-2.07,0.46-3.83,1.39-5.29
			s2.28-2.57,4.05-3.34c1.77-0.77,3.91-1.15,6.4-1.15c1.19,0,2.37,0.13,3.52,0.39c1.15,0.26,2.29,0.65,3.42,1.16
			c1.13,0.51,2.23,1.16,3.32,1.94l-2.66,3.72c-1.27-0.93-2.54-1.63-3.8-2.1c-1.26-0.47-2.53-0.7-3.8-0.7
			c-2.28,0-4.05,0.46-5.31,1.37c-1.26,0.91-1.89,2.2-1.89,3.87v0.02c0,1.15,0.32,2.05,0.98,2.71c0.65,0.66,1.46,1.14,2.43,1.46
			c0.97,0.31,2.32,0.64,4.05,0.98c0.06,0.02,0.12,0.03,0.17,0.03c0.05,0.01,0.11,0.02,0.17,0.03c0.08,0.02,0.16,0.03,0.25,0.05
			c0.09,0.01,0.18,0.03,0.25,0.04c2.02,0.41,3.71,0.9,5.06,1.47c1.35,0.57,2.49,1.48,3.4,2.74c0.91,1.26,1.37,2.99,1.37,5.17v0.05
			c0,2.04-0.48,3.78-1.45,5.22c-0.96,1.45-2.36,2.55-4.19,3.3c-1.83,0.76-4.04,1.14-6.62,1.14
			C145.29,237.16,143.77,237,142.33,236.7z"/>
		<path d="M161.22,203.44h23.55v4.45h-23.55V203.44z M170.65,206.18h4.68v30.64h-4.68V206.18z"/>
		<path d="M193.36,235.7c-1.75-0.97-3.09-2.39-4-4.25c-0.92-1.86-1.38-4.1-1.38-6.71v-21.3h4.68v21.46c0,2.43,0.61,4.31,1.84,5.64
			c1.22,1.33,2.95,2,5.19,2c2.25,0,3.99-0.67,5.22-2c1.23-1.33,1.85-3.21,1.85-5.64v-21.46h4.68v21.3c0,2.62-0.46,4.85-1.38,6.71
			c-0.92,1.86-2.26,3.27-4.02,4.25c-1.76,0.97-3.88,1.46-6.36,1.46C197.21,237.16,195.11,236.67,193.36,235.7z"/>
		<path d="M219.23,203.44h4.68v33.37h-4.68V203.44z M222.4,232.36h7.55c2.46,0,4.37-0.64,5.73-1.92c1.35-1.28,2.03-3.08,2.03-5.41
			v-9.82c0-2.33-0.68-4.13-2.03-5.4c-1.35-1.28-3.26-1.92-5.73-1.92h-7.55v-4.45h7.41c2.68,0,4.96,0.47,6.86,1.4
			c1.9,0.93,3.34,2.29,4.34,4.09c0.99,1.79,1.49,3.95,1.49,6.47v9.46c0,2.53-0.5,4.68-1.49,6.47c-0.99,1.79-2.44,3.15-4.35,4.08
			c-1.9,0.93-4.2,1.4-6.87,1.4h-7.39V232.36z"/>
		<path d="M250.07,203.44h4.68v33.37h-4.68V203.44z M252.35,203.44h19.16v4.45h-19.16V203.44z M252.35,218.02h16.64v4.45h-16.64
			V218.02z M252.35,232.36h19.16v4.45h-19.16V232.36z"/>
		<path d="M278.16,203.44h4.25l16.32,25.79l-0.55,0.6v-26.39h4.64v33.34h-4.29l-16.27-25.4l0.55-0.6v26h-4.64V203.44z"/>
		<path d="M306.48,203.44h23.54v4.45h-23.54V203.44z M315.92,206.18h4.68v30.64h-4.68V206.18z"/>
		<path d="M346.32,203.44h4.68v33.37h-4.68V203.44z M349.49,232.36h7.55c2.46,0,4.37-0.64,5.73-1.92c1.35-1.28,2.03-3.08,2.03-5.41
			v-9.82c0-2.33-0.68-4.13-2.03-5.4c-1.36-1.28-3.26-1.92-5.73-1.92h-7.55v-4.45h7.41c2.68,0,4.96,0.47,6.86,1.4
			c1.9,0.93,3.34,2.29,4.34,4.09c0.99,1.79,1.49,3.95,1.49,6.47v9.46c0,2.53-0.5,4.68-1.49,6.47c-1,1.79-2.44,3.15-4.35,4.08
			c-1.9,0.93-4.2,1.4-6.87,1.4h-7.39V232.36z"/>
		<path d="M377.17,203.42h4.68v33.39h-4.68V203.42z M379.21,218.25h11.38c0.89,0,1.67-0.21,2.36-0.64c0.69-0.43,1.22-1.04,1.59-1.82
			c0.38-0.79,0.56-1.69,0.56-2.72c0-1.03-0.19-1.93-0.56-2.72s-0.9-1.4-1.58-1.83c-0.68-0.43-1.47-0.64-2.38-0.64h-11.38v-4.45h11.2
			c1.93,0,3.62,0.4,5.08,1.19c1.46,0.79,2.59,1.92,3.4,3.38s1.21,3.15,1.21,5.06c0,1.91-0.41,3.6-1.22,5.06
			c-0.81,1.46-1.95,2.59-3.41,3.39c-1.46,0.79-3.15,1.19-5.06,1.19h-11.2V218.25z M388.3,221.67l4.66-1.06l8.54,16.2h-5.55
			L388.3,221.67z"/>
		<path d="M412.69,235.63c-1.78-1.02-3.15-2.46-4.12-4.31c-0.97-1.86-1.46-4.01-1.46-6.46v-9.46c0-2.45,0.49-4.6,1.46-6.46
			c0.97-1.86,2.34-3.3,4.12-4.31c1.77-1.02,3.82-1.53,6.15-1.53c2.33,0,4.38,0.51,6.15,1.53c1.77,1.02,3.15,2.46,4.12,4.31
			c0.97,1.86,1.46,4.01,1.46,6.46v9.46c0,2.45-0.49,4.6-1.46,6.46c-0.97,1.86-2.34,3.3-4.12,4.31c-1.78,1.02-3.83,1.53-6.15,1.53
			C416.52,237.16,414.47,236.65,412.69,235.63z M422.48,231.61c1.05-0.62,1.86-1.5,2.43-2.64c0.57-1.14,0.86-2.46,0.86-3.96v-9.78
			c0-1.5-0.29-2.82-0.86-3.96c-0.57-1.14-1.38-2.02-2.43-2.64c-1.05-0.62-2.26-0.93-3.64-0.93s-2.59,0.31-3.64,0.93
			c-1.05,0.62-1.86,1.5-2.43,2.64c-0.57,1.14-0.86,2.46-0.86,3.96v9.78c0,1.5,0.29,2.82,0.86,3.96c0.57,1.14,1.38,2.02,2.43,2.64
			c1.05,0.62,2.26,0.93,3.64,0.93S421.43,232.23,422.48,231.61z"/>
		<path d="M443.07,235.7c-1.75-0.97-3.09-2.39-4-4.25c-0.92-1.86-1.38-4.1-1.38-6.71v-21.3h4.68v21.46c0,2.43,0.61,4.31,1.84,5.64
			c1.22,1.33,2.95,2,5.19,2c2.25,0,3.99-0.67,5.22-2c1.23-1.33,1.85-3.21,1.85-5.64v-21.46h4.68v21.3c0,2.62-0.46,4.85-1.38,6.71
			c-0.92,1.86-2.26,3.27-4.02,4.25c-1.76,0.97-3.88,1.46-6.36,1.46C446.92,237.16,444.82,236.67,443.07,235.7z"/>
		<path d="M491.75,218.84v5.83c0,2.48-0.48,4.66-1.45,6.55c-0.96,1.89-2.33,3.35-4.1,4.38c-1.77,1.03-3.81,1.55-6.14,1.55
			c-2.36,0-4.43-0.49-6.21-1.46c-1.78-0.97-3.16-2.34-4.14-4.12c-0.98-1.77-1.47-3.83-1.47-6.17v-9.84c0-2.48,0.48-4.66,1.45-6.54
			c0.96-1.88,2.33-3.34,4.1-4.37c1.77-1.03,3.81-1.55,6.14-1.55c1.91,0,3.68,0.41,5.29,1.23s2.96,1.98,4.05,3.48
			c1.09,1.5,1.82,3.24,2.2,5.21h-5.07c-0.28-1.12-0.74-2.08-1.4-2.88c-0.66-0.8-1.43-1.42-2.32-1.84c-0.89-0.42-1.8-0.63-2.75-0.63
			c-1.38,0-2.58,0.33-3.63,0.99c-1.04,0.66-1.84,1.58-2.41,2.76c-0.57,1.19-0.85,2.57-0.85,4.14v9.84c0,1.44,0.29,2.7,0.87,3.78
			c0.58,1.08,1.4,1.92,2.47,2.51c1.06,0.6,2.29,0.89,3.68,0.89c1.38,0,2.58-0.31,3.63-0.93c1.04-0.62,1.84-1.52,2.41-2.7
			c0.57-1.18,0.85-2.58,0.85-4.2v-1.45h-6.77v-4.47H491.75z"/>
		<path d="M499.33,203.44h4.68v33.37h-4.68V203.44z M502.24,218.15h18.52v4.45h-18.52V218.15z M518.28,203.44h4.68v33.37h-4.68
			V203.44z"/>
		<path d="M526.64,203.44h23.55v4.45h-23.55V203.44z M536.07,206.18h4.68v30.64h-4.68V206.18z"/>
		<path d="M66.37,259.84h4.68v33.37h-4.68V259.84z M68.78,275.82h10.67c1.01,0,1.9-0.24,2.66-0.71c0.76-0.47,1.36-1.15,1.78-2.02
			c0.42-0.87,0.63-1.87,0.63-3.01c0-1.15-0.21-2.16-0.63-3.03s-1.01-1.55-1.78-2.03c-0.77-0.48-1.65-0.72-2.66-0.72H68.78v-4.45
			h10.51c1.99,0,3.74,0.42,5.26,1.27c1.51,0.85,2.69,2.05,3.52,3.59c0.83,1.55,1.25,3.34,1.25,5.37c0,2.04-0.42,3.82-1.25,5.36
			c-0.83,1.54-2.01,2.73-3.52,3.57c-1.51,0.84-3.27,1.26-5.26,1.26H68.78V275.82z"/>
		<path d="M95.63,259.82h4.68v33.39h-4.68V259.82z M97.67,274.65h11.38c0.89,0,1.68-0.21,2.36-0.64c0.69-0.43,1.22-1.04,1.59-1.82
			c0.38-0.79,0.56-1.69,0.56-2.72c0-1.03-0.19-1.93-0.56-2.72s-0.9-1.4-1.58-1.83c-0.68-0.43-1.47-0.64-2.38-0.64H97.67v-4.45h11.2
			c1.93,0,3.62,0.4,5.08,1.19c1.46,0.79,2.59,1.92,3.4,3.38c0.8,1.46,1.2,3.15,1.2,5.06c0,1.91-0.41,3.6-1.22,5.06
			c-0.81,1.46-1.95,2.59-3.41,3.39c-1.46,0.79-3.15,1.19-5.06,1.19h-11.2V274.65z M106.76,278.07l4.66-1.06l8.54,16.2h-5.55
			L106.76,278.07z"/>
		<path d="M126.26,259.84h4.68v33.37h-4.68V259.84z M128.54,259.84h19.16v4.45h-19.16V259.84z M128.54,274.42h16.64v4.45h-16.64
			V274.42z M128.54,288.76h19.16v4.45h-19.16V288.76z"/>
		<path d="M154.35,259.84h4.68v33.37h-4.68V259.84z M157.52,288.76h7.55c2.46,0,4.37-0.64,5.73-1.92c1.35-1.28,2.03-3.08,2.03-5.41
			v-9.82c0-2.33-0.68-4.13-2.03-5.4c-1.35-1.28-3.26-1.92-5.73-1.92h-7.55v-4.45h7.41c2.68,0,4.96,0.47,6.86,1.4
			c1.9,0.93,3.34,2.29,4.34,4.09c0.99,1.79,1.49,3.95,1.49,6.47v9.46c0,2.53-0.5,4.68-1.49,6.47c-0.99,1.79-2.44,3.15-4.35,4.08
			c-1.9,0.93-4.2,1.4-6.87,1.4h-7.39V288.76z"/>
		<path d="M189.88,293.21h-4.68v-33.37h4.68V293.21z"/>
		<path d="M202.97,292.02c-1.75-1.02-3.11-2.48-4.07-4.36s-1.45-4.06-1.45-6.54v-9.16c0-2.48,0.48-4.66,1.45-6.54
			c0.96-1.88,2.32-3.34,4.07-4.37c1.75-1.03,3.78-1.55,6.09-1.55c1.91,0,3.67,0.41,5.28,1.23s2.95,1.98,4.03,3.48
			c1.08,1.5,1.81,3.24,2.19,5.21h-4.8c-0.29-1.04-0.78-1.97-1.46-2.79c-0.68-0.82-1.48-1.45-2.4-1.89
			c-0.92-0.44-1.87-0.67-2.85-0.67c-1.36,0-2.56,0.33-3.58,0.99c-1.03,0.66-1.82,1.58-2.39,2.76c-0.57,1.19-0.85,2.57-0.85,4.14
			v9.16c0,1.56,0.28,2.94,0.85,4.13c0.57,1.19,1.36,2.12,2.39,2.76c1.02,0.65,2.22,0.98,3.58,0.98c0.99,0,1.95-0.21,2.86-0.62
			c0.91-0.41,1.71-1.03,2.39-1.84c0.68-0.81,1.17-1.78,1.46-2.89h4.8c-0.38,1.97-1.12,3.71-2.2,5.21c-1.09,1.5-2.43,2.66-4.04,3.48
			c-1.61,0.82-3.36,1.23-5.26,1.23C206.75,293.56,204.72,293.04,202.97,292.02z"/>
		<path d="M222.63,259.84h23.55v4.45h-23.55V259.84z M232.06,262.58h4.68v30.64h-4.68V262.58z"/>
		<path d="M254.53,293.21h-4.68v-33.37h4.68V293.21z"/>
		<path d="M267.68,292.03c-1.77-1.02-3.15-2.46-4.12-4.31c-0.97-1.86-1.46-4.01-1.46-6.46v-9.46c0-2.45,0.49-4.6,1.46-6.46
			c0.97-1.86,2.34-3.3,4.12-4.31c1.77-1.02,3.82-1.53,6.15-1.53c2.33,0,4.38,0.51,6.15,1.53c1.77,1.02,3.15,2.46,4.12,4.31
			c0.97,1.86,1.46,4.01,1.46,6.46v9.46c0,2.45-0.49,4.6-1.46,6.46c-0.97,1.86-2.35,3.3-4.12,4.31c-1.77,1.02-3.83,1.53-6.15,1.53
			C271.5,293.56,269.45,293.05,267.68,292.03z M277.46,288.01c1.05-0.62,1.86-1.5,2.43-2.64c0.57-1.14,0.86-2.46,0.86-3.96v-9.78
			c0-1.5-0.29-2.82-0.86-3.96c-0.57-1.14-1.38-2.02-2.43-2.64c-1.05-0.62-2.26-0.93-3.64-0.93s-2.59,0.31-3.64,0.93
			c-1.05,0.62-1.86,1.5-2.43,2.64c-0.57,1.14-0.86,2.46-0.86,3.96v9.78c0,1.5,0.29,2.82,0.86,3.96c0.57,1.14,1.38,2.02,2.43,2.64
			c1.05,0.62,2.26,0.93,3.64,0.93S276.42,288.63,277.46,288.01z"/>
		<path d="M293.13,259.84h4.25l16.32,25.79l-0.55,0.6v-26.39h4.64v33.34h-4.29l-16.27-25.4l0.55-0.6v26h-4.64V259.84z"/>
		<path d="M338.66,259.84h4.68v33.37h-4.68V259.84z M341.07,275.82h10.67c1.01,0,1.9-0.24,2.66-0.71c0.76-0.47,1.36-1.15,1.78-2.02
			c0.42-0.87,0.63-1.87,0.63-3.01c0-1.15-0.21-2.16-0.63-3.03c-0.42-0.87-1.01-1.55-1.78-2.03c-0.77-0.48-1.65-0.72-2.66-0.72
			h-10.67v-4.45h10.51c1.99,0,3.74,0.42,5.25,1.27c1.52,0.85,2.69,2.05,3.52,3.59c0.83,1.55,1.25,3.34,1.25,5.37
			c0,2.04-0.42,3.82-1.25,5.36c-0.83,1.54-2.01,2.73-3.52,3.57c-1.51,0.84-3.27,1.26-5.25,1.26h-10.51V275.82z"/>
		<path d="M372.81,292.03c-1.77-1.02-3.15-2.46-4.12-4.31c-0.97-1.86-1.46-4.01-1.46-6.46v-9.46c0-2.45,0.49-4.6,1.46-6.46
			c0.97-1.86,2.34-3.3,4.12-4.31c1.78-1.02,3.83-1.53,6.15-1.53c2.33,0,4.38,0.51,6.15,1.53c1.78,1.02,3.15,2.46,4.12,4.31
			c0.97,1.86,1.46,4.01,1.46,6.46v9.46c0,2.45-0.49,4.6-1.46,6.46c-0.97,1.86-2.34,3.3-4.12,4.31c-1.77,1.02-3.82,1.53-6.15,1.53
			C376.63,293.56,374.58,293.05,372.81,292.03z M382.59,288.01c1.05-0.62,1.86-1.5,2.43-2.64c0.57-1.14,0.86-2.46,0.86-3.96v-9.78
			c0-1.5-0.29-2.82-0.86-3.96c-0.57-1.14-1.38-2.02-2.43-2.64c-1.05-0.62-2.26-0.93-3.64-0.93s-2.59,0.31-3.64,0.93
			c-1.05,0.62-1.86,1.5-2.43,2.64c-0.57,1.14-0.86,2.46-0.86,3.96v9.78c0,1.5,0.29,2.82,0.86,3.96c0.57,1.14,1.38,2.02,2.43,2.64
			c1.05,0.62,2.26,0.93,3.64,0.93S381.55,288.63,382.59,288.01z"/>
		<path d="M398.26,259.82h4.68v33.39h-4.68V259.82z M400.3,274.65h11.38c0.89,0,1.67-0.21,2.36-0.64c0.69-0.43,1.22-1.04,1.59-1.82
			c0.38-0.79,0.56-1.69,0.56-2.72c0-1.03-0.19-1.93-0.56-2.72s-0.9-1.4-1.58-1.83c-0.68-0.43-1.47-0.64-2.38-0.64H400.3v-4.45h11.2
			c1.93,0,3.62,0.4,5.08,1.19c1.46,0.79,2.59,1.92,3.4,3.38c0.8,1.46,1.2,3.15,1.2,5.06c0,1.91-0.41,3.6-1.22,5.06
			c-0.81,1.46-1.95,2.59-3.41,3.39c-1.46,0.79-3.15,1.19-5.06,1.19h-11.2V274.65z M409.39,278.07l4.66-1.06l8.54,16.2h-5.55
			L409.39,278.07z"/>
		<path d="M424.3,259.84h23.55v4.45H424.3V259.84z M433.74,262.58h4.68v30.64h-4.68V262.58z"/>
		<path d="M460.61,259.84h3.99l12.3,33.37h-5.05l-9.25-26.92l-9.25,26.92h-5.05L460.61,259.84z M453.98,281.44h17.56v4.45h-17.56
			V281.44z"/>
		<path d="M481.95,259.84h4.68v33.37h-4.68V259.84z M484.29,288.76h19.09v4.45h-19.09V288.76z"/>
	</g>
</g>
</svg>
